<svg width="23" height="26" viewBox="0 0 23 26" fill="none" xmlns="http://www.w3.org/2000/svg">
<path d="M10.8184 0.245484C10.2353 0.594589 7.99105 1.91428 7.78772 2.02554C7.69182 2.07924 7.59974 2.13295 7.57673 2.1483C7.55754 2.16748 7.43478 2.24037 7.30818 2.31326C7.18159 2.38231 6.77494 2.62016 6.40665 2.83883C5.51279 3.36441 4.29668 4.07797 3.58696 4.48845C3.27238 4.67259 2.44373 5.15597 1.74552 5.56262C1.05115 5.96927 0.372123 6.36441 0.241688 6.44114L0 6.57924L0.011509 12.7365L0.0191816 18.89L1.86445 19.968C2.87724 20.5588 3.87468 21.1419 4.07801 21.2608C4.28133 21.3836 4.4578 21.4833 4.46931 21.4833C4.48082 21.4833 4.48849 18.679 4.48849 15.2532C4.48849 9.6905 4.49616 9.02298 4.54604 8.99996C4.59974 8.98078 6.03069 8.14063 8.45908 6.70201C10.5384 5.47055 11.2327 5.0639 11.2558 5.0639C11.2788 5.0639 14.9079 7.19689 16.2468 7.99485C16.711 8.27106 17.2941 8.62016 17.5435 8.76594L17.9923 9.03449V12.7787V16.5268L17.6394 16.7378C17.4437 16.8529 16.7494 17.2634 16.0934 17.647C15.4412 18.0307 14.0793 18.8286 13.0742 19.4232L11.2404 20.5012V23.0102C11.2404 24.3874 11.2519 25.5076 11.2711 25.5C11.344 25.4578 16.2583 22.5729 16.899 22.1931C17.3018 21.9552 18.5332 21.2301 19.6419 20.5818C20.7506 19.9335 21.8478 19.289 22.078 19.147L22.5 18.8938V12.7404V6.59075L21.6368 6.08052C21.1611 5.80431 20.1598 5.21352 19.4118 4.77618C18.6637 4.335 16.9872 3.3529 15.6905 2.58947C11.7967 0.299193 11.2826 -3.99032e-05 11.2519 -3.99032e-05C11.2327 0.00379641 11.0409 0.111213 10.8184 0.245484Z" fill="#262A37"/>
<path d="M9.62916 8.21354C8.73146 8.73912 7.84527 9.26086 7.65345 9.37595C7.46547 9.4872 7.09719 9.70203 6.83632 9.85549L6.36829 10.1317L6.37596 12.8823L6.38747 15.6291L6.80946 15.8823C7.04348 16.0243 7.57673 16.3427 7.99872 16.5921C8.42072 16.8414 8.93095 17.1445 9.13043 17.2634C9.32992 17.3823 9.87852 17.7084 10.3465 17.9885L11.1944 18.4949L11.7084 18.1918C11.9885 18.023 13.0818 17.3823 14.1368 16.7685C15.1918 16.1509 16.0665 15.633 16.0857 15.6176C16.101 15.6023 16.1125 14.3555 16.1125 12.8478C16.1125 10.6918 16.101 10.101 16.0665 10.078C15.9744 10.0243 13.5729 8.61252 12.5256 7.99871C11.9578 7.66879 11.4361 7.36188 11.3747 7.32352L11.2558 7.25446L9.62916 8.21354Z" fill="#262A37"/>
</svg>
